<?xml version="1.0" standalone="no"?>
<!DOCTYPE svg PUBLIC "-//W3C//DTD SVG 20010904//EN"
 "http://www.w3.org/TR/2001/REC-SVG-20010904/DTD/svg10.dtd">
<svg version="1.0" xmlns="http://www.w3.org/2000/svg"
 width="642.000000pt" height="642.000000pt" viewBox="0 0 642.000000 642.000000"
 preserveAspectRatio="xMidYMid meet">
<metadata>
Created by potrace 1.11, written by Peter Selinger 2001-2013
</metadata>
<g transform="translate(0.000000,642.000000) scale(0.100000,-0.100000)"
fill="#000000" stroke="none">
<path d="M3219 6415 c-2 -1 -35 -6 -74 -9 -68 -6 -103 -11 -155 -21 -14 -3
-38 -8 -55 -10 -186 -32 -516 -147 -690 -241 -22 -12 -67 -36 -100 -54 -151
-82 -406 -265 -535 -384 -157 -146 -365 -372 -417 -454 -10 -15 -23 -33 -30
-39 -11 -13 -126 -179 -150 -218 -101 -166 -213 -379 -268 -510 -16 -38 -30
-72 -31 -75 0 -3 -6 -18 -13 -35 -69 -160 -183 -570 -206 -740 -3 -22 -8 -51
-10 -65 -46 -251 -55 -718 -19 -1020 8 -67 49 -297 58 -328 3 -9 8 -32 11 -51
3 -19 8 -37 10 -41 2 -4 6 -20 9 -36 9 -52 102 -325 146 -429 173 -412 433
-779 751 -1059 47 -42 264 -206 272 -206 3 0 29 -16 59 -36 73 -49 316 -169
383 -190 6 -2 53 -18 105 -37 88 -30 161 -51 218 -62 13 -2 33 -7 44 -11 11
-3 30 -7 41 -9 12 -2 56 -8 97 -14 138 -21 184 -24 350 -24 214 0 282 6 475
44 177 35 294 70 480 145 67 27 299 140 340 166 328 209 427 288 654 518 369
374 656 854 829 1390 34 106 84 285 98 355 16 79 44 239 50 280 3 28 8 59 10
70 19 95 27 658 12 810 -11 115 -27 225 -43 305 -3 14 -10 50 -16 80 -100 499
-335 992 -650 1365 -299 355 -663 608 -1086 756 -93 33 -295 85 -363 94 -25 3
-72 11 -105 16 -55 10 -478 22 -486 14z"/>
</g>
</svg>
